<?xml version="1.0" encoding="UTF-8" standalone="no"?>
<svg
   xmlns:dc="http://purl.org/dc/elements/1.1/"
   xmlns:cc="http://creativecommons.org/ns#"
   xmlns:rdf="http://www.w3.org/1999/02/22-rdf-syntax-ns#"
   xmlns:svg="http://www.w3.org/2000/svg"
   xmlns="http://www.w3.org/2000/svg"
   viewBox="0 0 188.97333 75.426666"
   height="75.426666"
   width="188.97333"
   xml:space="preserve"
   id="svg2"
   version="1.1"><metadata
     id="metadata8"><rdf:RDF><cc:Work
         rdf:about=""><dc:format>image/svg+xml</dc:format><dc:type
           rdf:resource="http://purl.org/dc/dcmitype/StillImage" /></cc:Work></rdf:RDF></metadata><defs
     id="defs6"><clipPath
       id="clipPath20"
       clipPathUnits="userSpaceOnUse"><path
         id="path18"
         d="M 10.0469,544.262 H 1298.35 V 323.5 H 10.0469 v 220.762" /></clipPath><clipPath
       id="clipPath30"
       clipPathUnits="userSpaceOnUse"><path
         id="path28"
         d="M 0,0 H 1417 V 565.738 H 0 Z" /></clipPath><clipPath
       id="clipPath40"
       clipPathUnits="userSpaceOnUse"><path
         id="path38"
         d="M 10.0469,544.262 H 1298.35 V 323.5 H 10.0469 v 220.762" /></clipPath><clipPath
       id="clipPath50"
       clipPathUnits="userSpaceOnUse"><path
         id="path48"
         d="M 0,0 V 566 H 1417 V 0 Z" /></clipPath><clipPath
       id="clipPath60"
       clipPathUnits="userSpaceOnUse"><path
         id="path58"
         d="M 10.0469,544.262 H 1298.35 V 323.5 H 10.0469 v 220.762" /></clipPath><clipPath
       id="clipPath70"
       clipPathUnits="userSpaceOnUse"><path
         id="path68"
         d="M 0,0 V 566 H 1417 V 0 Z" /></clipPath><clipPath
       id="clipPath80"
       clipPathUnits="userSpaceOnUse"><path
         id="path78"
         d="M 10.0469,544.262 H 1298.35 V 323.5 H 10.0469 v 220.762" /></clipPath><clipPath
       id="clipPath90"
       clipPathUnits="userSpaceOnUse"><path
         id="path88"
         d="M 0,0 V 566 H 1417 V 0 Z" /></clipPath><clipPath
       id="clipPath100"
       clipPathUnits="userSpaceOnUse"><path
         id="path98"
         d="M 10.0469,544.262 H 1298.35 V 323.5 H 10.0469 v 220.762" /></clipPath><clipPath
       id="clipPath110"
       clipPathUnits="userSpaceOnUse"><path
         id="path108"
         d="M 0,0 V 566 H 1417 V 0 Z" /></clipPath><clipPath
       id="clipPath120"
       clipPathUnits="userSpaceOnUse"><path
         id="path118"
         d="M 10.0469,544.262 H 1298.35 V 323.5 H 10.0469 v 220.762" /></clipPath><clipPath
       id="clipPath130"
       clipPathUnits="userSpaceOnUse"><path
         id="path128"
         d="M 0,0 V 566 H 1417 V 0 Z" /></clipPath><clipPath
       id="clipPath140"
       clipPathUnits="userSpaceOnUse"><path
         id="path138"
         d="M 10.0469,544.262 H 1298.35 V 323.5 H 10.0469 v 220.762" /></clipPath><clipPath
       id="clipPath150"
       clipPathUnits="userSpaceOnUse"><path
         id="path148"
         d="M 0,0 V 566 H 1417 V 0 Z" /></clipPath><clipPath
       id="clipPath160"
       clipPathUnits="userSpaceOnUse"><path
         id="path158"
         d="M 10.0469,544.262 H 1298.35 V 323.5 H 10.0469 v 220.762" /></clipPath><clipPath
       id="clipPath170"
       clipPathUnits="userSpaceOnUse"><path
         id="path168"
         d="M 0,0 V 566 H 1417 V 0 Z" /></clipPath><clipPath
       id="clipPath180"
       clipPathUnits="userSpaceOnUse"><path
         id="path178"
         d="M 10.0469,544.262 H 1298.35 V 323.5 H 10.0469 v 220.762" /></clipPath><clipPath
       id="clipPath190"
       clipPathUnits="userSpaceOnUse"><path
         id="path188"
         d="M 0,0 V 566 H 1417 V 0 Z" /></clipPath><clipPath
       id="clipPath200"
       clipPathUnits="userSpaceOnUse"><path
         id="path198"
         d="M 10.0469,544.262 H 1298.35 V 323.5 H 10.0469 v 220.762" /></clipPath><clipPath
       id="clipPath210"
       clipPathUnits="userSpaceOnUse"><path
         id="path208"
         d="M 0,0 V 566 H 1417 V 0 Z" /></clipPath><clipPath
       id="clipPath220"
       clipPathUnits="userSpaceOnUse"><path
         id="path218"
         d="M 10.0469,544.262 H 1298.35 V 323.5 H 10.0469 v 220.762" /></clipPath><clipPath
       id="clipPath230"
       clipPathUnits="userSpaceOnUse"><path
         id="path228"
         d="M 0,0 V 566 H 1417 V 0 Z" /></clipPath><clipPath
       id="clipPath240"
       clipPathUnits="userSpaceOnUse"><path
         id="path238"
         d="M 10.0469,544.262 H 1298.35 V 323.5 H 10.0469 v 220.762" /></clipPath><clipPath
       id="clipPath252"
       clipPathUnits="userSpaceOnUse"><path
         id="path250"
         d="M 0,0 V 566 H 1417 V 0 Z" /></clipPath><clipPath
       id="clipPath262"
       clipPathUnits="userSpaceOnUse"><path
         id="path260"
         d="M 10.0469,544.262 H 1298.35 V 323.5 H 10.0469 v 220.762" /></clipPath><clipPath
       id="clipPath272"
       clipPathUnits="userSpaceOnUse"><path
         id="path270"
         d="M 0,0 V 566 H 1417 V 0 Z" /></clipPath><clipPath
       id="clipPath282"
       clipPathUnits="userSpaceOnUse"><path
         id="path280"
         d="M 10.0469,544.262 H 1298.35 V 323.5 H 10.0469 v 220.762" /></clipPath><clipPath
       id="clipPath292"
       clipPathUnits="userSpaceOnUse"><path
         id="path290"
         d="M 0,0 V 566 H 1417 V 0 Z" /></clipPath><clipPath
       id="clipPath302"
       clipPathUnits="userSpaceOnUse"><path
         id="path300"
         d="M 10.0469,544.262 H 1298.35 V 323.5 H 10.0469 v 220.762" /></clipPath><clipPath
       id="clipPath312"
       clipPathUnits="userSpaceOnUse"><path
         id="path310"
         d="M 0,0 H 1417 V 565.738 H 0 Z" /></clipPath></defs><g
     transform="matrix(1.3333333,0,0,-1.3333333,0,75.426667)"
     id="g10"><g
       transform="scale(0.1)"
       id="g12"><g
         id="g14"><g
           clip-path="url(#clipPath20)"
           id="g16"><path
             id="path22"
             style="fill:#ffffff;fill-opacity:1;fill-rule:nonzero;stroke:none"
             d="m 368.16,341.371 v 79.703 h 0.238 l 33.122,-79.703 h 7.812 l 33.117,80.059 h 0.242 v -80.059 h 7.797 v 86.66 h -11.879 l -33.238,-75.488 -32.527,75.488 h -12.485 v -86.66 h 7.801" /></g></g><g
         id="g24"><g
           clip-path="url(#clipPath30)"
           id="g26"><path
             id="path32"
             style="fill:#ffffff;fill-opacity:1;fill-rule:evenodd;stroke:none"
             d="m 501.34,415.676 h 8.879 v 10.554 h -8.879 z m -20.879,0 h 8.879 v 10.554 h -8.879 z m 31.437,-48.735 c 0,-10.8 -5.398,-20.769 -17.281,-20.769 -9.836,0 -15.84,6.133 -15.84,16.57 v 38.891 h -7.195 v -37.692 c 0,-6.961 1.559,-24.367 21.238,-24.367 7.801,0 14.641,3.477 18.84,10.918 l 0.238,-0.23 0.364,-8.891 h 7.441 c -0.23,4.082 -0.594,8.891 -0.594,13.57 v 46.692 h -7.211 v -34.692" /></g></g><g
         id="g34"><g
           clip-path="url(#clipPath40)"
           id="g36"><path
             id="path42"
             style="fill:#ffffff;fill-opacity:1;fill-rule:nonzero;stroke:none"
             d="m 545.488,376.063 c 0,10.796 5.403,20.769 17.282,20.769 9.843,0 15.839,-6.117 15.839,-16.57 v -38.891 h 7.204 v 37.692 c 0,6.968 -1.567,24.371 -21.243,24.371 -7.797,0 -14.636,-3.485 -18.84,-10.918 l -0.242,0.226 -0.355,8.891 h -7.453 c 0.242,-4.078 0.601,-8.891 0.601,-13.57 v -46.692 h 7.207 v 34.692" /></g></g><g
         id="g44"><g
           clip-path="url(#clipPath50)"
           id="g46"><path
             id="path52"
             style="fill:#ffffff;fill-opacity:1;fill-rule:nonzero;stroke:none"
             d="m 650.84,383.145 c -0.602,12.847 -10.68,20.289 -23.035,20.289 -17.895,0 -26.899,-15.614 -26.899,-31.93 0,-16.441 8.414,-31.93 26.414,-31.93 13.68,0 21.602,6.836 23.52,20.649 h -7.797 c -0.602,-8.289 -7.082,-14.051 -16.441,-14.051 -11.039,0 -17.891,11.648 -17.891,25.449 0,13.68 6.852,25.211 17.891,25.211 9.961,0 15.839,-4.441 16.441,-13.687 h 7.797" /></g></g><g
         id="g54"><g
           clip-path="url(#clipPath60)"
           id="g56"><path
             id="path62"
             style="fill:#ffffff;fill-opacity:1;fill-rule:nonzero;stroke:none"
             d="M 672.203,428.031 H 665 v -86.66 h 7.203 v 34.692 c 0,10.796 5.399,20.769 17.277,20.769 9.84,0 15.852,-6.117 15.852,-16.57 v -38.891 h 7.195 v 37.692 c 0,6.968 -1.554,24.371 -21.25,24.371 -7.797,0 -14.636,-3.485 -18.836,-10.918 h -0.238 v 35.515" /></g></g><g
         id="g64"><g
           clip-path="url(#clipPath70)"
           id="g66"><path
             id="path72"
             style="fill:#ffffff;fill-opacity:1;fill-rule:evenodd;stroke:none"
             d="m 782.48,369.824 c 0,18.836 -7.324,33.61 -27.492,33.61 -17.879,0 -26.875,-15.614 -26.875,-31.93 0,-16.441 8.403,-31.93 26.399,-31.93 14.519,0 23.523,6.598 27.246,21.008 h -7.559 c -1.804,-8.277 -8.886,-14.41 -17.414,-14.41 -14.754,0 -20.633,10.808 -20.879,23.652 z m -46.328,6.598 c 0.957,10.558 7.2,20.41 18.953,20.41 12.493,0 18.735,-8.769 19.575,-20.41 h -38.528" /></g></g><g
         id="g74"><g
           clip-path="url(#clipPath80)"
           id="g76"><path
             id="path82"
             style="fill:#ffffff;fill-opacity:1;fill-rule:nonzero;stroke:none"
             d="m 805.613,376.063 c 0,10.796 5.41,20.769 17.285,20.769 9.844,0 15.84,-6.117 15.84,-16.57 v -38.891 h 7.207 v 37.692 c 0,6.968 -1.55,24.371 -21.25,24.371 -7.793,0 -14.636,-3.485 -18.836,-10.918 l -0.246,0.226 -0.347,8.891 h -7.446 c 0.239,-4.078 0.598,-8.891 0.598,-13.57 v -46.692 h 7.195 v 34.692" /></g></g><g
         id="g84"><g
           clip-path="url(#clipPath90)"
           id="g86"><path
             id="path92"
             style="fill:#ffffff;fill-opacity:1;fill-rule:nonzero;stroke:none"
             d="m 411.762,456.941 v 7.2 h -43.574 v 79.461 h -7.797 v -86.661 h 51.371" /></g></g><g
         id="g94"><g
           clip-path="url(#clipPath100)"
           id="g96"><path
             id="path102"
             style="fill:#ffffff;fill-opacity:1;fill-rule:evenodd;stroke:none"
             d="m 427.223,473.75 c 0,15.121 21.355,13.203 31.554,13.563 0.727,-12.602 -2.277,-25.571 -17.996,-25.571 -7.32,0 -13.558,3.84 -13.558,12.008 z m 31.554,20.16 c -8.757,-0.476 -19.199,0.723 -27.234,-2.758 -7.203,-3 -12.125,-9.238 -12.125,-17.402 0,-11.77 8.883,-18.609 20.047,-18.609 8.156,0 16.195,4.8 18.836,9.843 l 0.359,0.852 h 0.242 l 0.239,-8.895 h 7.441 c -0.238,4.079 -0.723,8.895 -0.602,13.571 v 28.558 c 0.243,13.809 -8.042,19.934 -21.363,19.934 -11.515,0 -20.754,-4.684 -22.554,-17.051 h 7.679 c 0.961,8.168 7.196,10.449 14.762,10.449 8.519,0 13.559,-3.121 14.273,-12.968 v -5.524" /></g></g><g
         id="g104"><g
           clip-path="url(#clipPath110)"
           id="g106"><path
             id="path112"
             style="fill:#ffffff;fill-opacity:1;fill-rule:nonzero;stroke:none"
             d="m 491.898,491.629 c 0,10.801 5.403,20.773 17.29,20.773 9.839,0 15.839,-6.129 15.839,-16.566 v -38.895 h 7.203 v 37.692 c 0,6.957 -1.562,24.371 -21.238,24.371 -7.812,0 -14.648,-3.481 -18.851,-10.922 l -0.243,0.234 -0.355,8.887 h -7.441 c 0.238,-4.082 0.601,-8.887 0.601,-13.57 v -46.692 h 7.195 v 34.688" /></g></g><g
         id="g114"><g
           clip-path="url(#clipPath120)"
           id="g116"><path
             id="path122"
             style="fill:#ffffff;fill-opacity:1;fill-rule:evenodd;stroke:none"
             d="m 592.699,488.512 c 0,-13.68 -4.801,-26.77 -20.531,-26.77 -13.801,0 -17.035,15.25 -17.035,26.41 0,11.52 4.437,24.25 18.121,24.25 14.047,0 19.445,-11.652 19.445,-23.89 z m 0.602,-31.571 h 7.441 c -0.246,4.079 -0.601,8.895 -0.601,13.571 v 73.09 h -7.203 v -35.286 l -0.239,-0.234 c -4.199,7.078 -12.601,10.922 -20.648,10.922 -17.879,0 -24.723,-16.09 -24.723,-31.691 0,-15.122 6.844,-32.172 24.723,-32.172 8.41,0 15.726,3.961 20.648,11.172 l 0.239,-0.477 0.363,-8.895" /></g></g><g
         id="g124"><g
           clip-path="url(#clipPath130)"
           id="g126"><path
             id="path132"
             style="fill:#ffffff;fill-opacity:1;fill-rule:evenodd;stroke:none"
             d="m 668.891,485.391 c 0,18.843 -7.321,33.613 -27.489,33.613 -17.882,0 -26.882,-15.609 -26.882,-31.93 0,-16.441 8.402,-31.933 26.398,-31.933 14.531,0 23.531,6.601 27.25,21.011 h -7.559 c -1.8,-8.293 -8.879,-14.41 -17.406,-14.41 -14.762,0 -20.644,10.813 -20.883,23.649 z m -46.332,6.601 c 0.961,10.563 7.203,20.41 18.961,20.41 12.488,0 18.73,-8.769 19.57,-20.41 h -38.531" /></g></g><g
         id="g134"><g
           clip-path="url(#clipPath140)"
           id="g136"><path
             id="path142"
             style="fill:#ffffff;fill-opacity:1;fill-rule:nonzero;stroke:none"
             d="m 682.793,502.191 c 0,-11.16 9.602,-13.921 19.078,-16.199 9.598,-2.16 19.086,-3.601 19.086,-12.242 0,-8.41 -8.047,-12.008 -15.727,-12.008 -8.16,0 -16.082,2.641 -16.679,11.653 h -7.797 c 0.238,-13.332 12.234,-18.254 22.68,-18.254 12.718,0 25.328,6.125 25.328,19.691 0,6.481 -3.957,11.883 -10.203,14.039 -16.329,5.762 -27.969,4.922 -27.969,13.801 0,7.078 6.844,9.73 13.558,9.73 7.446,0 14.165,-2.531 14.883,-10.089 h 7.805 c -0.969,12.73 -10.566,16.691 -21.965,16.691 -10.558,0 -22.078,-4.32 -22.078,-16.813" /></g></g><g
         id="g144"><g
           clip-path="url(#clipPath150)"
           id="g146"><path
             id="path152"
             style="fill:#ffffff;fill-opacity:1;fill-rule:nonzero;stroke:none"
             d="m 752.031,543.602 h -7.195 v -86.661 h 7.195 v 34.688 c 0,10.801 5.41,20.773 17.285,20.773 9.844,0 15.84,-6.129 15.84,-16.566 v -38.895 h 7.207 v 37.692 c 0,6.957 -1.562,24.371 -21.242,24.371 -7.801,0 -14.637,-3.481 -18.848,-10.922 h -0.242 v 35.52" /></g></g><g
         id="g154"><g
           clip-path="url(#clipPath160)"
           id="g156"><path
             id="path162"
             style="fill:#ffffff;fill-opacity:1;fill-rule:evenodd;stroke:none"
             d="m 814.063,473.75 c 0,15.121 21.367,13.203 31.574,13.563 0.711,-12.602 -2.285,-25.571 -18.008,-25.571 -7.324,0 -13.566,3.84 -13.566,12.008 z m 31.574,20.16 c -8.762,-0.476 -19.219,0.723 -27.258,-2.758 -7.195,-3 -12.117,-9.238 -12.117,-17.402 0,-11.77 8.875,-18.609 20.039,-18.609 8.172,0 16.211,4.8 18.844,9.843 l 0.363,0.852 h 0.246 l 0.23,-8.895 h 7.446 c -0.239,4.079 -0.715,8.895 -0.598,13.571 v 28.558 c 0.234,13.809 -8.035,19.934 -21.355,19.934 -11.536,0 -20.774,-4.684 -22.582,-17.051 h 7.687 c 0.957,8.168 7.195,10.449 14.766,10.449 8.523,0 13.562,-3.121 14.289,-12.968 v -5.524" /></g></g><g
         id="g164"><g
           clip-path="url(#clipPath170)"
           id="g166"><path
             id="path172"
             style="fill:#ffffff;fill-opacity:1;fill-rule:nonzero;stroke:none"
             d="m 911.875,482.516 c 0,-10.801 -5.398,-20.774 -17.285,-20.774 -9.844,0 -15.84,6.117 -15.84,16.574 v 38.887 h -7.195 v -37.691 c 0,-6.957 1.558,-24.371 21.238,-24.371 7.793,0 14.641,3.48 18.84,10.933 l 0.242,-0.238 0.359,-8.895 h 7.446 c -0.239,4.079 -0.598,8.895 -0.598,13.571 v 46.691 h -7.207 v -34.687" /></g></g><g
         id="g174"><g
           clip-path="url(#clipPath180)"
           id="g176"><path
             id="path182"
             style="fill:#ffffff;fill-opacity:1;fill-rule:evenodd;stroke:none"
             d="m 944.258,488.512 c 0,12.238 5.398,23.89 19.441,23.89 13.684,0 18.364,-12.73 18.364,-24.25 0,-11.16 -3.477,-26.41 -17.29,-26.41 -15.71,0 -20.515,13.09 -20.515,26.77 z m 0,-22.199 h 0.246 c 4.922,-7.211 12.234,-11.172 20.992,-11.172 17.531,0 24.375,17.05 24.375,32.172 0,15.601 -6.844,31.691 -24.734,31.691 -8.035,0 -16.438,-3.844 -20.633,-10.922 l -0.246,0.234 -0.363,8.887 h -7.43 c 0.223,-4.082 0.715,-8.887 0.598,-13.57 v -69.731 h 7.195 v 32.411" /></g></g><g
         id="g184"><g
           clip-path="url(#clipPath190)"
           id="g186"><path
             id="path192"
             style="fill:#ffffff;fill-opacity:1;fill-rule:nonzero;stroke:none"
             d="m 1010.13,473.031 c 0,-8.168 -0.84,-17.89 14.4,-17.89 2.4,0 5.04,0.484 7.32,1.078 v 6.242 c -1.92,-0.602 -4.08,-0.719 -6.23,-0.719 -5.53,0 -8.41,3 -8.29,8.531 v 40.329 h 13.68 v 6.601 h -13.68 v 15.961 l -7.2,-3.121 v -12.84 h -12.005 v -6.601 h 12.005 v -37.571" /></g></g><g
         id="g194"><g
           clip-path="url(#clipPath200)"
           id="g196"><path
             id="path202"
             style="fill:#ffffff;fill-opacity:1;fill-rule:nonzero;stroke:none"
             d="m 1042.82,502.191 c 0,-11.16 9.6,-13.921 19.08,-16.199 9.6,-2.16 19.08,-3.601 19.08,-12.242 0,-8.41 -8.04,-12.008 -15.72,-12.008 -8.16,0 -16.08,2.641 -16.68,11.653 h -7.8 c 0.25,-13.332 12.24,-18.254 22.68,-18.254 12.72,0 25.33,6.125 25.33,19.691 0,6.481 -3.97,11.883 -10.21,14.039 -16.32,5.762 -27.95,4.922 -27.95,13.801 0,7.078 6.83,9.73 13.55,9.73 7.44,0 14.16,-2.531 14.88,-10.089 h 7.81 c -0.97,12.73 -10.57,16.691 -21.97,16.691 -10.56,0 -22.08,-4.32 -22.08,-16.813" /></g></g><g
         id="g204"><g
           clip-path="url(#clipPath210)"
           id="g206"><path
             id="path212"
             style="fill:#ffffff;fill-opacity:1;fill-rule:nonzero;stroke:none"
             d="m 1110.02,473.031 c 0,-8.168 -0.84,-17.89 14.41,-17.89 2.4,0 5.04,0.484 7.32,1.078 v 6.242 c -1.92,-0.602 -4.08,-0.719 -6.24,-0.719 -5.52,0 -8.41,3 -8.28,8.531 v 40.329 h 13.68 v 6.601 h -13.68 v 15.961 l -7.21,-3.121 v -12.84 h -12 v -6.601 h 12 v -37.571" /></g></g><g
         id="g214"><g
           clip-path="url(#clipPath220)"
           id="g216"><path
             id="path222"
             style="fill:#ffffff;fill-opacity:1;fill-rule:evenodd;stroke:none"
             d="m 1147.29,473.75 c 0,15.121 21.35,13.203 31.55,13.563 0.72,-12.602 -2.28,-25.571 -18,-25.571 -7.31,0 -13.55,3.84 -13.55,12.008 z m 31.55,20.16 c -8.76,-0.476 -19.2,0.723 -27.24,-2.758 -7.21,-3 -12.13,-9.238 -12.13,-17.402 0,-11.77 8.89,-18.609 20.05,-18.609 8.17,0 16.2,4.8 18.84,9.843 l 0.36,0.852 h 0.24 l 0.24,-8.895 h 7.44 c -0.24,4.079 -0.72,8.895 -0.6,13.571 v 28.558 c 0.24,13.809 -8.04,19.934 -21.36,19.934 -11.52,0 -20.76,-4.684 -22.57,-17.051 h 7.69 c 0.96,8.168 7.2,10.449 14.76,10.449 8.52,0 13.57,-3.121 14.28,-12.968 v -5.524" /></g></g><g
         id="g224"><g
           clip-path="url(#clipPath230)"
           id="g226"><path
             id="path232"
             style="fill:#ffffff;fill-opacity:1;fill-rule:evenodd;stroke:none"
             d="m 1246.05,488.512 c 0,-13.68 -4.8,-26.77 -20.53,-26.77 -13.8,0 -17.04,15.25 -17.04,26.41 0,11.52 4.44,24.25 18.12,24.25 14.05,0 19.45,-11.652 19.45,-23.89 z m 0.6,-31.571 h 7.44 c -0.24,4.079 -0.6,8.895 -0.6,13.571 v 73.09 h -7.2 v -35.286 l -0.24,-0.234 c -4.2,7.078 -12.61,10.922 -20.65,10.922 -17.88,0 -24.72,-16.09 -24.72,-31.691 0,-15.122 6.84,-32.172 24.72,-32.172 8.41,0 15.73,3.961 20.65,11.172 l 0.24,-0.477 0.36,-8.895" /></g></g><g
         id="g234"><g
           clip-path="url(#clipPath240)"
           id="g236"><path
             id="path242"
             style="fill:#ffffff;fill-opacity:1;fill-rule:nonzero;stroke:none"
             d="m 1276.63,473.031 c 0,-8.168 -0.84,-17.89 14.4,-17.89 2.4,0 5.04,0.484 7.32,1.078 v 6.242 c -1.91,-0.602 -4.08,-0.719 -6.24,-0.719 -5.52,0 -8.4,3 -8.28,8.531 v 40.329 h 13.68 v 6.601 h -13.68 v 15.961 l -7.2,-3.121 v -12.84 h -12 v -6.601 h 12 v -37.571" /><path
             id="path244"
             style="fill:none;stroke:#ffffff;stroke-width:4.76000023;stroke-linecap:butt;stroke-linejoin:miter;stroke-miterlimit:3.86400008;stroke-dasharray:none;stroke-opacity:1"
             d="M 18.0117,541.191 H 185.469 V 414.254 c 0,-46.582 -37.539,-83.57 -83.676,-83.602 -46.1641,-0.031 -83.7813,37.438 -83.7813,83.602 0,0 0,75.168 0,126.937 z" /></g></g><g
         id="g246"><g
           clip-path="url(#clipPath252)"
           id="g248"><path
             id="path254"
             style="fill:#ffffff;fill-opacity:1;fill-rule:nonzero;stroke:none"
             d="m 104.211,470.172 c 6.867,0.219 12.059,2.726 14.922,5.75 1.707,1.578 3.238,3.129 3.816,5.351 l -2.789,1.09 c -0.558,-1.8 -1.43,-2.66 -2.84,-3.968 -2.679,-2.813 -8.293,-5.184 -14.793,-5.184 -5.3981,0 -10.1872,1.769 -13.1872,3.84 -2.3007,1.449 -3.8281,2.832 -4.5703,5.332 l -2.7461,-1.262 c 0.7891,-2.937 3.0469,-5.027 5.7149,-6.707 3.1406,-2.172 7.3633,-4.008 12.9417,-4.242 V 441.926 H 85.2695 v -3.453 h 15.3785 v -50.832 h 3.563 v 50.832 h 16.066 v 3.453 h -16.066 z m -8.3204,46.492 c 4.7384,0 15.0434,-0.562 19.8394,-2.391 5.43,-2.402 8.352,-4.972 11.719,-10.742 1.711,-3.429 2.399,-4.629 3.266,-9.211 -6.125,0 -20.293,1.555 -17.215,-4.629 0.344,-0.847 4.398,-5.25 10.23,-6.277 7.493,-1.555 17.547,-0.172 25.379,2.91 2.692,1.028 -0.73,4.348 1.149,5.43 0,0 1.344,0.687 3.394,1.887 -0.511,1.375 -1.019,2.234 -1.543,3.543 l 10.262,5.32 7.488,-15.152 -10.429,-5.657 -3.551,7.297 c 2.109,1.629 2.09,1.539 5.629,3.942 -0.168,0.687 -0.336,1.129 -0.68,1.816 -1.363,-0.348 -6.258,-3.855 -6.43,-4.371 -0.687,-1.535 0.411,-2.336 0.075,-4.055 -0.512,-2.234 -1.871,-2.672 -3.93,-3.351 0,-0.692 0.172,-1.09 0.336,-1.61 2.574,0.52 4.031,1.371 4.891,4.121 1.003,-1.785 0.851,-2.402 1.851,-3.863 l -8.5,-5.191 v 8.011 c -0.68,0 -1.719,-0.351 -2.41,-0.519 v -99.457 c -3.602,0.348 -10.063,2 -12.465,5.258 -2.683,3.949 -2.168,8.863 -2.168,15.32 0,0.859 0.516,41.098 -0.515,45.898 -1.02,3.723 -2.508,5.543 -3.711,7.262 -1.204,1.707 -3.95,3.656 -5.832,4.34 v -76.648 l -38.4692,0.058 v 75.34 c -2.461,-0.602 -3.8594,-1.363 -5.7188,-3.09 -2.4023,-2.242 -3.9414,-5.199 -3.9414,-7.433 0,0 -0.0625,-36.344 -0.0625,-45.899 0,-9.195 -1.0273,-11.199 -1.875,-12.23 -3.4336,-5.489 -7.7265,-7.321 -13.5547,-7.321 0,34.239 0.2344,85 0.2344,91.969 0,3.375 0.5078,6.633 -2.5195,7.66 0,-2.394 -0.207,-4.113 -0.207,-6.965 l -15.1641,8.34 c 0.2578,0.848 0.4687,0.918 0.8203,1.778 2.2266,-0.52 2.4375,-1.082 4.4883,-1.758 0,0.168 0.418,1.179 0.418,1.179 0,0 -2.6055,1.719 -4.3282,1.719 0.3477,0.852 0.3125,0.832 0.6602,1 1.0195,0.508 2.5703,-0.859 4.8008,-1.371 0.1679,0.68 0.1679,1.172 0,1.34 -0.8633,0.863 -2.4883,0.941 -4.211,1.789 -0.5664,0.516 -3.4492,1.984 -6.539,4.211 0.1718,0.691 0.332,0.809 0.6679,1.332 0.8594,-0.523 4.9336,-3.102 6.6485,-3.961 0.1718,-0.168 0.5156,1.063 0.3437,1.063 -1.2031,1.027 -3.2617,1.878 -6.4609,4.398 0.3398,0.508 0.6875,0.887 0.8594,1.566 2.5117,-1.539 4.2304,-3.074 6.8046,-4.906 1.3672,-1.031 2.2266,-1.39 3.1954,-2.594 1.0312,-1.875 -0.8008,-6.976 4.6289,-8.515 l 0.0703,1.617 c -3.5977,2.172 -2.0469,5.543 -3.4297,7.602 -0.8477,1.367 -5.1602,3.257 -3.0977,6.117 2.3477,-1.719 8.6914,-6.977 8.6914,-7.149 0.3399,-1.027 -1.2031,-3.937 1.6563,-5.769 2.9141,-1.891 15.5391,-4.629 19.6016,-4.121 6.4609,0.523 13.789,2.039 18.5898,7.468 0.8594,-1.027 1.8398,-3.519 2.3477,-3.695 l 5.4292,1.539 c -0.097,0.219 0.372,5.379 0.372,10.699 0,8.34 0.082,10.274 -0.957,12.371 -1.743,2.282 -2.403,3.278 -6.9224,5.391" /></g></g><g
         id="g256"><g
           clip-path="url(#clipPath262)"
           id="g258"><path
             id="path264"
             style="fill:#ffffff;fill-opacity:1;fill-rule:nonzero;stroke:none"
             d="m 89.1602,383.051 c 0,0 1.7187,0 6.125,0 0,-6 0,-8.168 0,-8.168 -0.3555,-0.524 -2.0625,-0.86 -5.9532,-3.598 -4.8007,-3.433 -6.8007,-4.922 -11.4297,-7.832 0,8.34 6.9805,12.633 8.5196,14.629 1.1992,1.543 1.707,4.633 2.7383,4.969" /></g></g><g
         id="g266"><g
           clip-path="url(#clipPath272)"
           id="g268"><path
             id="path274"
             style="fill:none;stroke:#ffffff;stroke-width:0.56999999;stroke-linecap:butt;stroke-linejoin:miter;stroke-miterlimit:3.86400008;stroke-dasharray:none;stroke-opacity:1"
             d="m 89.1602,383.051 c 0,0 1.7187,0 6.125,0 0,-6 0,-8.168 0,-8.168 -0.3555,-0.524 -2.0625,-0.86 -5.9532,-3.598 -4.8007,-3.433 -6.8007,-4.922 -11.4297,-7.832 0,8.34 6.9805,12.633 8.5196,14.629 1.1992,1.543 1.707,4.633 2.7383,4.969 z" /></g></g><g
         id="g276"><g
           clip-path="url(#clipPath282)"
           id="g278"><path
             id="path284"
             style="fill:#ffffff;fill-opacity:1;fill-rule:nonzero;stroke:none"
             d="m 108.941,383.051 c 4.629,0 6.289,0 6.289,0 0.168,-0.168 2.68,-5.309 4.571,-6.965 3.429,-3.941 5.597,-3.266 6.289,-12.633 -3.887,2.231 -5.949,3.938 -9.828,6.973 -4.121,3.086 -6.012,3.254 -6.864,4.457 -0.515,0.859 -0.398,2.969 -0.457,8.168" /></g></g><g
         id="g286"><g
           clip-path="url(#clipPath292)"
           id="g288"><path
             id="path294"
             style="fill:none;stroke:#ffffff;stroke-width:0.56999999;stroke-linecap:butt;stroke-linejoin:miter;stroke-miterlimit:3.86400008;stroke-dasharray:none;stroke-opacity:1"
             d="m 108.941,383.051 c 4.629,0 6.289,0 6.289,0 0.168,-0.168 2.68,-5.309 4.571,-6.965 3.429,-3.941 5.597,-3.266 6.289,-12.633 -3.887,2.231 -5.949,3.938 -9.828,6.973 -4.121,3.086 -6.012,3.254 -6.864,4.457 -0.515,0.859 -0.398,2.969 -0.457,8.168 z" /></g></g><g
         id="g296"><g
           clip-path="url(#clipPath302)"
           id="g298"><path
             id="path304"
             style="fill:#ffffff;fill-opacity:1;fill-rule:evenodd;stroke:none"
             d="m 90.5234,504.645 -0.0351,-0.204 c 2.7734,-1.418 2.9101,-1.39 5.5508,0.243 -0.7891,1.507 -2.1758,2.527 -3.9805,2.078 -1.0469,-0.418 -1.418,-1.012 -1.5352,-2.117 z m -1.0586,8.148 c -0.3632,-2.172 0.1172,-2.402 1.4688,-3.77 0.5742,1.54 0.9648,2.637 -1.4688,3.77 z m 2.1563,0.059 c -0.5,-1.86 -0.3398,-2.75 1.6523,-3.688 0.125,1.836 0.5352,2.149 -1.6523,3.688 z m 2.2812,-0.192 c -0.5117,-1.816 -0.5117,-2.449 1.6407,-3.699 0.125,1.84 0.2773,2.312 -1.6407,3.699 z m 2.0586,0.094 c -0.6093,-1.953 -0.3125,-2.691 1.8399,-3.664 0.1289,1.844 -0.2617,2.031 -1.8399,3.664 z m -5.5507,2.949 c 1.5546,0.36 3.4726,-0.344 5.0781,-1.051 2.1445,-1.371 4.9337,-3.691 5.4647,-6.191 0.508,-1.52 -0.191,-21.012 -0.191,-21.012 l -0.379,-0.258 c 0,0 -2.1525,4.282 -3.4533,5.5 -0.3555,0.18 -3.3906,-0.539 -8.6758,0 -0.3633,2.325 -0.6016,3.52 -0.6016,5.442 -0.9062,0.183 -1.0507,0.195 -1.9492,0.379 1.7852,8.859 -1.1718,14.633 4.7071,17.191" /></g></g><g
         id="g306"><g
           clip-path="url(#clipPath312)"
           id="g308"><g
             transform="scale(10)"
             id="g314"><text
               id="text320"
               style="font-variant:normal;font-weight:bold;font-size:12px;font-family:Univers;-inkscape-font-specification:Univers-Bold;writing-mode:lr-tb;fill:#ffffff;fill-opacity:1;fill-rule:nonzero;stroke:none"
               transform="matrix(1,0,0,-1,35.3184,22.0625)"><tspan
                 id="tspan316"
                 y="0"
                 x="0 8.0039997 14.676 18.432034 24.98399 29.292192 35.964191 40.632195 43.968193 47.964191 55.296192">Referat für</tspan><tspan
                 id="tspan318"
                 y="11.5"
                 x="0 8.0039997 11.34 14.676 22.007999 29.34 36.672001 44.004002 46.003899 53.095894 60.187889 67.279701 70.375793 78.139786 85.231781 92.323792 96.870659">Bildung und Sport</tspan></text>
</g></g></g></g></g></svg>