<svg xmlns="http://www.w3.org/2000/svg" width="400" height="400" viewBox="0 0 0 0 400 400"><path d="M193.463 6.346c-12.854.576-11.236.308-11.236 1.867V9.48l5.068-.293 5.068-.292.236 3.009c.129 1.655.335 6.87.457 11.589.121 4.719.33 10.281.464 12.36l.244 3.779h3.293l-.262-5.618c-.144-3.09-.383-9.956-.531-15.258l-.269-9.64.981-.262c.54-.145 2.774-.265 4.965-.268l3.983-.006V7.15c0-1.114-.157-1.415-.715-1.364-.393.036-5.679.288-11.746.56m22.923.84c-.3.781-.326 2.211-.041 2.211.355 0 16.735 2.463 17.037 2.562.158.052-.578 1.02-1.634 2.151a108.55 108.55 0 0 0-3.556 4.032 131.049 131.049 0 0 1-2.451 2.886c-2.956 3.297-5.986 6.758-6.988 7.981-.644.787-1.267 1.522-1.384 1.635-.118.112-1.224 1.399-2.458 2.86-1.235 1.46-2.475 2.898-2.755 3.195-.593.627-1.119 2.461-.798 2.783.255.255 21.618 3.47 21.806 3.281.07-.069.239-.686.376-1.37.303-1.519.855-1.355-9.536-2.827-8.707-1.233-8.564-1.144-6.129-3.825a110.25 110.25 0 0 0 3.167-3.669 96.19 96.19 0 0 1 2.392-2.829c.986-1.1 4.081-4.61 5.988-6.793.59-.674 1.933-2.237 2.985-3.472 1.053-1.236 2.199-2.523 2.548-2.861 1.395-1.348 2.839-3.598 2.839-4.423 0-1.056.484-.941-10.623-2.522-4.832-.688-9.179-1.336-9.662-1.44-.551-.119-.968.049-1.123.454m-46.723 1.281c-1.664.207-1.787-1.578 1.195 17.366l2.556 16.232 1.648-.252c.907-.138 1.677-.272 1.712-.297.035-.025-1.108-7.4-2.539-16.388-1.432-8.989-2.61-16.481-2.617-16.65-.008-.169-.152-.277-.321-.241-.168.036-.904.14-1.634.23m-19.214 2.668c-1.246.4-1.324.53-1.134 1.9.26 1.869.551 4.49.841 7.563.125 1.328.306 2.983.403 3.677.178 1.276 1.008 8.404 1.241 10.659.26 2.525.661 5.335.859 6.026.37 1.29-.202.754-1.96-1.838-.952-1.405-1.882-2.738-2.066-2.963-.183-.224-.714-.868-1.18-1.43-.465-.561-2.989-3.868-5.61-7.348-4.798-6.373-5.27-6.982-6.864-8.876l-.874-1.038-1.884.719c-1.471.562-1.884.922-1.884 1.642 0 .881.614 7.565 1.012 11.02.103.899.474 5.036.824 9.193s.723 7.834.83 8.171c.31.981-2.512-2.63-6.547-8.378-.899-1.28-2.83-3.952-4.291-5.937-1.46-1.985-2.931-4.007-3.268-4.494-1.596-2.306-3.414-4.48-3.745-4.48-.891 0-3.352 1.29-2.959 1.552.238.158 1.193 1.417 2.124 2.797.93 1.381 1.945 2.764 2.254 3.074.31.309 1.036 1.311 1.613 2.225.577.914 1.304 1.921 1.616 2.238.311.317 1.192 1.495 1.957 2.619.765 1.124 1.646 2.302 1.957 2.619.312.317 1.039 1.324 1.616 2.238.577.914 1.312 1.925 1.634 2.247.322.322 1.056 1.337 1.632 2.256.575.92 1.166 1.764 1.313 1.876.147.112.788.898 1.425 1.746 1.214 1.617 1.371 1.641 4.043.614l1.159-.445-.258-2.898a501.952 501.952 0 0 0-.666-6.78c-.663-6.299-.728-6.995-.973-10.419-.128-1.798-.336-4.073-.462-5.056-.708-5.54-.681-5.586 1.478-2.503.805 1.15 5.038 6.699 7.48 9.806a252.56 252.56 0 0 1 2.445 3.269c1.079 1.461 2.192 2.936 2.471 3.279.279.344 1.296 1.667 2.258 2.943l1.751 2.318 1.906-.754 1.907-.753-.122-2.189c-.068-1.203-.289-3.567-.492-5.253a277.673 277.673 0 0 1-.604-5.515l-.432-4.495a212.069 212.069 0 0 0-.816-7.15c-.104-.787-.286-2.533-.404-3.882-.118-1.348-.288-2.819-.377-3.268-.09-.45-.177-1.231-.194-1.737-.035-1.014-.068-1.02-1.983-.407m122.806 13.982c-11.609 3.969-15.874 20.127-7.405 28.056 2.988 2.797 11.274 6.48 14.579 6.48.859 0 8.166-13.524 7.587-14.043-.094-.084-.768-.457-1.496-.828l-1.326-.674-2.958 5.934c-3.352 6.723-3.059 6.525-7.354 4.967-7.656-2.777-10.947-8.106-9.441-15.291 2.653-12.656 15.231-16.483 24.959-7.596 2.316 2.117 2.547 2.152 3.473.526.7-1.23.695-1.276-.205-2.05-6.647-5.714-13.977-7.682-20.413-5.481m-30.494 7.559l-.424 1.216 4.164 1.259c2.289.692 4.703 1.434 5.363 1.649 1.357.443 1.734.202 1.931-1.235.131-.952-.121-1.081-4.97-2.55-6.121-1.854-5.547-1.822-6.064-.339m62.04 4.296c0 .136-.363 2.307-.807 4.825a605.826 605.826 0 0 0-1.001 5.803c-2.105 13.202-1.667 11.901-6.003 17.838l-3.34 4.574 1.183.947c1.597 1.278 1.529 1.328 5.473-4.059l3.473-4.744 10.215-5.183c12.042-6.11 11.252-5.535 9.465-6.898l-1.432-1.092-3.608 1.912a542.74 542.74 0 0 0-5.651 3.038c-6.856 3.773-8.433 4.501-8.206 3.785.259-.816 2.932-15.519 3.199-17.595.141-1.097-.024-1.485-.883-2.078-1.573-1.088-2.077-1.348-2.077-1.073M93.23 38.013c-1.578.96-1.579.902.044 3.575 1.474 2.425 15.881 25.543 16.06 25.768.104.131 12.556-7.445 13.377-8.138.526-.445-.9-2.914-1.482-2.566-.272.161-2.668 1.638-5.325 3.282-2.658 1.643-4.889 2.987-4.959 2.987-.071 0-2.016-3.079-4.324-6.843s-4.96-8.039-5.894-9.5a562.098 562.098 0 0 1-3.658-5.825c-2.357-3.815-2.225-3.721-3.839-2.74M71.131 55.005l-1.323 1.182L80.359 68.93c5.802 7.009 10.711 12.753 10.907 12.764.434.027 12.105-9.755 12.105-10.144 0-.514-1.27-2.091-1.684-2.091-.226 0-2.192 1.517-4.369 3.372-2.176 1.855-4.255 3.604-4.619 3.887-.567.441-13.881-14.564-19.802-22.315-.369-.483-.663-.383-1.766.602m263.496 7.23c-6.027 4.267-21.138 14.304-21.534 14.305-.271 0-.418.122-.326.271.092.149-.928.967-2.265 1.82-2.823 1.797-2.807 1.756-1.217 3.279l1.215 1.165 2.564-1.789c3.444-2.403 18.136-12.897 19.928-14.234l1.429-1.066-.689 1.021c-.38.562-1.298 2.186-2.041 3.609-.743 1.423-1.582 2.779-1.863 3.012-.282.234-.512.59-.512.791 0 .201-1.649 3.29-3.663 6.862-2.014 3.573-4.29 7.679-5.057 9.125l-1.394 2.627 1.318 1.57 1.318 1.57 2.247-1.1c1.236-.605 2.354-1.1 2.485-1.1.13 0 1.399-.533 2.819-1.184a213.25 213.25 0 0 1 6.26-2.696c2.022-.831 4.045-1.717 4.494-1.968.449-.25.909-.478 1.021-.504.268-.064 1.684-.676 4.699-2.032 4.473-2.011 4.471-2.012 1.59 1.345-6.934 8.079-10.584 12.464-13.987 16.8-.597.762-1.316 1.622-1.597 1.912-.749.773-.645 1.121.735 2.442.815.781 1.344 1.035 1.532.737.513-.816 2.314-3.149 2.943-3.813.337-.356 1.115-1.314 1.73-2.13.615-.816 1.355-1.729 1.646-2.029.81-.838 8.29-9.787 12.558-15.026.787-.966 1.666-2.003 1.954-2.304.542-.568-1.904-3.85-2.869-3.85-.385 0-15.073 6.165-26.186 10.991l-1.974.857.795-1.327c1.51-2.52 3.765-6.479 3.765-6.609 0-.071 1.038-1.946 2.305-4.166a468.554 468.554 0 0 0 3.417-6.079 304.213 304.213 0 0 1 2.602-4.642c2.126-3.711 2.165-4.099.584-5.92l-1.349-1.555-1.43 1.012M194.28 66.03c-4.653 4.082-23.079 22.468-29.859 29.794a6796.56 6796.56 0 0 1-10.995 11.837c-3.558 3.82-11.991 13.105-18.74 20.633-6.749 7.528-13.43 14.951-14.847 16.495-1.417 1.544-2.576 2.975-2.576 3.18 0 .205 5.286-2.292 11.746-5.548 32.801-16.529 51.051-27.09 71.323-41.27 12.376-8.658 37.56-31.183 36.944-33.044-.556-1.682-20.212-4.953-32.577-5.422l-6.333-.239-4.086 3.584m-14.916-1.901c-54.216 8.336-98.731 48.597-112.172 101.454-.844 3.318-1.459 6.108-1.367 6.2.092.092 2.096-.788 4.454-1.955 4.819-2.386 8.18-3.949 13.989-6.504l3.983-1.753 7.014-7.752c36.675-40.534 63.589-67.704 83.489-84.282 8.027-6.687 7.544-6.215 6.318-6.169-.554.021-3.122.363-5.708.761m61.442 7.27c-10.504 12.896-30.907 29.453-53.724 43.599-3.24 2.009-11.448 6.929-13.64 8.177-14.994 8.536-23.086 12.813-44.944 23.756-20.788 10.407-18.593 8.874-26.791 18.713-.578.693-3.679 4.295-6.891 8.003-3.212 3.707-7.888 9.112-10.39 12.01a7980.75 7980.75 0 0 1-8.657 10.01c-2.26 2.608-6 6.948-8.313 9.645l-4.204 4.903.184 1.949c.101 1.073.257 2.018.346 2.102.289.273 20.117-2.56 22.57-3.225 4.492-1.218 6.766-3.082 16.202-13.288 18.23-19.717 41.923-26.569 46.16-13.351 1.789 5.582-3.889 11.245-8.473 8.45-3.813-2.325-3.848-7.256-.066-9.212 3.528-1.824-1.363-3.575-5.707-2.042-2.659.938-4.262 2.405-9.359 8.566-10.291 12.439-18.812 18.285-32.868 22.55l-2.346.712 1.869 1.791c2.579 2.471 3.544 4.814 3.761 9.134.363 7.222-1.993 11.266-11.531 19.787-6.607 5.903-7.588 8.839-3.74 11.199 6.965 4.271 19.905-3.358 52.722-31.083a2993.68 2993.68 0 0 1 11.866-9.924c4.494-3.742 9.091-7.592 10.214-8.556 2.247-1.928 17.973-14.834 24.661-20.238 7.164-5.79 14.158-10.878 24.052-17.497l9.489-6.349 6.854-7.6c21.173-23.477 37.391-40.664 52.405-55.536 5.218-5.168 9.014-9.233 8.778-9.398-12.371-8.612-21.032-13.298-32.54-17.606-6.736-2.522-6.029-2.509-7.949-.151m-183.108.992c-6.564 1.013-12.36 8.167-12.341 15.233.024 8.864 10.961 18.751 20.025 18.103 6.186-.443 11.73-5.939 13.059-12.947 1.921-10.129-10.175-22.019-20.743-20.389m5.68 4.235c10.151 3.581 15 14.497 9.475 21.329-5.168 6.39-14.308 4.866-21.435-3.573-7.424-8.79 1.178-21.56 11.96-17.756m223.843 21.74a661.304 661.304 0 0 1-5.483 5.822c-3.199 3.357-10.341 11.111-14.12 15.33-1.01 1.128-3.509 3.886-5.554 6.129-8.231 9.03-20.263 22.668-19.999 22.668.832 0 34.309-17.212 42.705-21.956 1.017-.574 3.32-1.869 5.118-2.877 7.781-4.364 16.547-9.711 16.547-10.094 0-1.076-15.664-17.372-16.698-17.372-.189 0-1.321 1.058-2.516 2.35m-254.118 2.128c-1.08 2.119-.563 5.075 1.826 10.436.301.674 1.125 3.064 1.831 5.311s1.464 4.523 1.685 5.058c.673 1.633.222 1.489-6.418-2.048-3.531-1.88-6.531-3.466-6.667-3.523-.462-.195-1.816 2.772-1.426 3.124.207.188 5.525 3.054 11.817 6.37 6.292 3.315 12.769 6.753 14.394 7.638l2.953 1.611.825-1.352c.453-.744.824-1.45.825-1.569.001-.12-3.282-1.954-7.296-4.077l-7.298-3.86 6.378-1.53c3.509-.842 6.931-1.702 7.605-1.912.674-.209 2.654-.687 4.4-1.061l3.175-.681 1.041-2.054c1.216-2.4 1.188-2.482-.67-1.954-1.437.409-10.307 2.788-11.419 3.062-3.391.839-8.757 2.292-8.986 2.433-.444.275-.89-.903-4.285-11.336-1.737-5.337-3.227-9.704-3.311-9.704-.084 0-.525.729-.979 1.618m319.912 10.456c-15.643 7.68-15.064 7.305-14.112 9.145.822 1.589-.827 2.199 13.715-5.074 6.959-3.479 12.653-6.25 12.653-6.157 0 .093-1.241 2.133-2.758 4.533-1.517 2.4-4.597 7.346-6.844 10.991-2.247 3.645-4.562 7.348-5.144 8.229a73.37 73.37 0 0 0-2.029 3.298l-.971 1.697.975 2.083c.537 1.145 1.012 2.082 1.057 2.082.493 0 30.009-14.754 29.997-14.994-.01-.18-.332-.917-.716-1.637l-.699-1.309-11.848 5.938c-6.516 3.266-12.28 6.11-12.809 6.32l-.962.383 1.132-1.947c.622-1.071 1.882-3.074 2.8-4.451 1.964-2.947 5.381-8.31 6.647-10.432a514.22 514.22 0 0 1 2.611-4.29 975.582 975.582 0 0 0 3.155-5.171l1.437-2.377-.792-1.91c-1.095-2.643-.384-2.86-16.495 5.05m-48.01 8.401c-12.454 7.528-28.5 16.125-52.038 27.879l-18.126 9.052-9.517 11.032-17.977 20.837c-23.049 26.718-28.697 33.252-30.391 35.157-.809.909-2.323 2.655-3.365 3.881-3.705 4.359-9.632 11.241-15.609 18.126-3.334 3.841-7.176 8.316-8.536 9.945l-2.474 2.963h-21.248l2.162-2.35c1.189-1.292 2.457-2.627 2.817-2.968.361-.34 2.034-2.176 3.72-4.079 2.944-3.325 24.102-26.69 31.45-34.73 1.951-2.135 10.13-11.144 18.175-20.02 8.045-8.877 15.397-16.967 16.338-17.978 3.588-3.856 3.273-3.756-3.655 1.161-7.239 5.138-10.705 7.804-18.127 13.942a1550.169 1550.169 0 0 1-8.457 6.96c-.974.787-5.037 4.188-9.029 7.559-51.052 43.109-60.24 50.085-70.675 53.655-4.741 1.622-11.299 1.43-13.498-.395-1.075-.892-.542.583 1.775 4.92 18.316 34.276 49.72 59.077 86.966 68.683 9.026 2.328 9.983 2.407 11.461.946 23.08-22.802 61.521-44.961 93.357-53.814 1.829-.509 2.658-1.051 4.263-2.788 1.955-2.115 4.911-5.239 13.078-13.816 20.903-21.954 20.317-21.289 16.729-18.973-23.3 15.041-33.127 18.669-40.955 15.123-7.977-3.615-11.479-15.254-8.034-26.701.31-1.033.514-1.929.452-1.991-.062-.062-2.951 2.388-6.42 5.444-28.762 25.336-45.604 31.022-52.789 17.821-4.724-8.68-2.618-15.745 7.827-26.255 11.708-11.781 10.66-13.197-7.838-10.588-4.915.693-9.026 1.171-9.136 1.061-.193-.193 1.365-3.547 1.648-3.547 1.297 0 20.639-3.036 22.111-3.471 3.584-1.058 6.371-2.989 10.215-7.075 14.521-15.438 21.42-20.7 32.278-24.619 9.213-3.325 18.203-1.06 19.834 4.997 2.03 7.54-6.733 12.786-10.644 6.372-1.639-2.689-.633-5.54 2.662-7.548 1.343-.819-.549-2.165-3.011-2.142-4.402.042-6.125 1.345-13.486 10.198-9.534 11.467-19.324 17.996-32.434 21.63-2.195.608-2.378.919-.933 1.577 2.928 1.334 4.879 6.262 4.64 11.721-.242 5.545-1.825 8.589-7.144 13.743-8.847 8.572-9.914 9.697-10.172 10.725-.981 3.907 3.706 6.78 9.115 5.588 9.231-2.035 23.903-12.543 44.47-31.851a345.899 345.899 0 0 1 4.494-4.161c.654-.582 2.616-2.637 4.36-4.568 13.865-15.348 39.492-29.69 64.832-36.281 5.674-1.476 5.181-.889 4.343-5.173-3.839-19.636-11.306-37.191-22.834-53.684-1.389-1.988-2.617-3.611-2.73-3.608-.112.003-2.043 1.118-4.29 2.476M37.38 136.977c-1.335 3.708-3.477 10.233-3.384 10.305.066.052.678.282 1.36.511l1.239.417 1.812-5.301c1.759-5.141 1.79-5.319 1.033-5.872-.968-.708-1.818-.733-2.06-.06m314.975 11.649c.116.391.329 1.205.473 1.809.234.985.501 1.128 2.573 1.383 1.271.157 2.587.338 2.924.402.337.065 1.348.135 2.247.155l1.634.037 1.786 7.396c1.465 6.067 1.686 7.458 1.226 7.742-.308.19-.836.535-1.173.766-.337.232-1.532 1.016-2.656 1.743-3.046 1.969-3.172 2.146-2.859 4 .279 1.65.898 2.449 1.373 1.77.349-.5 21.213-14.968 24.063-16.687a9.028 9.028 0 0 0 1.133-.817c.25-.225 1.134-.868 1.963-1.43 1.329-.901 1.477-1.166 1.25-2.247-.494-2.353-.772-2.554-3.932-2.848a128.808 128.808 0 0 1-5.422-.636 134.505 134.505 0 0 0-4.494-.575 748.097 748.097 0 0 1-5.516-.613c-1.91-.219-5.955-.681-8.989-1.026-3.034-.345-6.033-.719-6.665-.831-.948-.167-1.113-.078-.939.507m18.227 4.82c1.236.103 2.799.267 3.473.363.674.096 2.329.292 3.677.434 1.349.142 3.003.325 3.678.406.674.08 1.593.165 2.043.187l.817.041-.817.458c-1.527.857-5.31 3.378-5.852 3.9-.297.286-.682.52-.856.52-.173 0-.832.443-1.463.985-.63.543-1.624 1.232-2.208 1.533-.584.3-1.37.822-1.747 1.159-1.496 1.337-3.194 2.12-3.379 1.557-.097-.294-.808-3.169-1.58-6.387l-1.404-5.851 1.685.253c.928.14 2.697.338 3.933.442m-359.348 1.099c-1.891 7.821-2.886 15.232-2.076 15.462 2.447.696 31.727 6.201 31.925 6.002.33-.33 3.245-15.781 3.019-16.006-.102-.102-.728-.246-1.39-.319l-1.204-.133-1.245 6.346-1.244 6.347-6.338-1.239-6.337-1.24 1.154-6.068c.636-3.338 1.098-6.12 1.027-6.183-.071-.063-.704-.238-1.408-.389l-1.279-.274-1.142 6.151c-.643 3.466-1.333 6.14-1.581 6.126-.241-.013-2.925-.519-5.963-1.124l-5.525-1.102 1.21-6.259c1.034-5.353 1.124-6.314.621-6.632-1.029-.652-1.994-.42-2.224.534m63.976 17.518c-2.567 1.146-5.968 2.781-7.559 3.633l-2.891 1.551-.473 2.796c-.726 4.294-1.101 9.399-.654 8.925 6.071-6.44 17.159-18.997 16.771-18.993-.289.003-2.627.943-5.194 2.088m306.825 6.926c-2.969 1.23-4.569 3.384-6.201 8.345-1.921 5.844-3.15 7.501-5.951 8.024-5.007.935-8.817-5.052-7.316-11.497.806-3.455.899-3.198-1.153-3.167-1.719.026-1.865.11-1.889 1.087-.015.582-.116 2.368-.226 3.969-.422 6.127 2.611 11.505 7.236 12.831 6.189 1.775 9.638-1.063 12.591-10.363.488-1.536 1.247-3.179 1.687-3.652.441-.472.801-.979.801-1.125 0-.505 2.086-1.214 3.569-1.214 3.91 0 6.026 3.482 5.738 9.444l-.189 3.931 1.57-.041 1.569-.042-.002-3.888c-.005-9.234-5.61-15.222-11.834-12.642m-49.065 5.033c-19.979 8.306-56.644 39.166-67.974 57.212-6.506 10.363-1.695 17.533 9.774 14.567 8.591-2.222 30.661-15.285 40.858-24.184.674-.589 2.604-2.244 4.289-3.678 3.23-2.75 14.749-13.495 16.14-15.056 1.45-1.626 1.136-29.874-.331-29.822-.267.01-1.507.442-2.756.961m-313.869 3.823l-13.381.113v3.795l7.294-.253 7.294-.253.263 3.968c.144 2.182.263 6.404.264 9.382l.003 5.413-6.436.006c-8.171.007-8.273.034-8.273 2.15v1.651l8.646-.269a653.183 653.183 0 0 1 16.752-.269h8.105v-3.692l-7.967.276-7.967.276v-3.882c0-2.134-.121-6.392-.268-9.461l-.268-5.58h16.062v-3.678l-3.371.097c-1.854.053-9.392.147-16.752.21m340.698 21.892c-.69 2.575-.626 2.621 4.144 2.941 2.416.163 9.939.686 16.719 1.163l12.326.868.172-1.634c.094-.899.129-1.691.077-1.76-.051-.069-6.595-.567-14.541-1.105-7.946-.539-15.395-1.065-16.553-1.169-1.895-.171-2.13-.101-2.344.696m-287.48 7.033c-3.708.519-7.087.957-7.51.974-1.144.044.28 8.863 3.068 18.982 1.47 5.34 1.738 5.749 2.397 3.659 1.091-3.461 3.729-7.1 9.061-12.5 11.791-11.942 10.743-13.602-7.016-11.115m-64.786 8.481c-.185.484 3.454 20.49 4.159 22.86.189.636 1.838.672 2.562.057.086-.074-.26-2.26-.771-4.859-.51-2.598-.809-4.843-.662-4.989.146-.146 6.935-1.567 15.088-3.158l14.822-2.893-.333-1.606c-.184-.883-.392-1.663-.462-1.734-.071-.07-6.799 1.169-14.951 2.755-8.152 1.585-14.924 2.781-15.049 2.656-.124-.124-.623-2.294-1.109-4.821-.849-4.418-.925-4.601-1.976-4.725-.669-.079-1.18.098-1.318.457m354.772 2.095c-7.981 2.848-10.107 17.926-3.163 22.422 2.555 1.655 4.536 2.287 15.424 4.924l10.725 2.598.435-1.618c.539-1.999 1.814-1.444-9.628-4.19-18.404-4.416-19.836-5.504-17.844-13.572 2.07-8.386 3.84-8.784 20.5-4.611 6.28 1.573 11.508 2.86 11.618 2.86.234 0 1.162-3.3.973-3.459-.502-.422-24.609-5.934-25.889-5.92-.888.01-2.307.265-3.151.566m-43.842 22.828c-7.402 7.474-14.929 15.11-16.727 16.969l-3.268 3.379 3.292-1.207c5.034-1.847 12.091-4.805 17.12-7.177l4.538-2.14 1.573-3.441c2.983-6.525 7.563-19.338 7.083-19.818-.084-.085-6.209 5.961-13.611 13.435m-275.766-7.195c-.675.573-2.117 1.877-3.206 2.897a106.298 106.298 0 0 1-3.638 3.239c-1.938 1.619-6.649 5.832-10.412 9.312-1.458 1.348-3.116 2.819-3.684 3.269a75.244 75.244 0 0 0-2.692 2.3l-1.659 1.482.555 1.684c.306.926.756 1.707 1.001 1.735 1.101.127 35.192-.136 35.328-.272.084-.084-.126-.85-.467-1.703l-.619-1.549-4.502.099-4.501.099-2.491-6.37c-3.331-8.52-3.272-7.826-.834-9.739 4.553-3.572 4.619-3.659 4.06-5.409-.696-2.177-.854-2.252-2.239-1.074m-3.942 16.496c1.203 3.161 2.122 5.81 2.043 5.889-.079.078-4.349.248-9.487.376l-9.343.234 1.171-.905c.644-.497 1.377-1.092 1.628-1.322 2.242-2.05 6.592-5.889 7.417-6.546a52.55 52.55 0 0 0 2.456-2.145c1.912-1.777 1.649-2.06 4.115 4.419m310.639.674l-.779 1.519 3.731 2.553c2.053 1.404 3.92 2.712 4.151 2.907.23.194.966.704 1.634 1.134 1.128.724 4.349 3.021 5.312 3.788.23.184.966.685 1.634 1.113 2.608 1.672 7.242 5.08 6.894 5.07-.202-.005-1.103-.177-2.002-.38a49.427 49.427 0 0 0-3.473-.624 188.288 188.288 0 0 1-5.107-.822 179.915 179.915 0 0 0-4.903-.794c-.899-.122-2.278-.333-3.064-.468-7.234-1.238-10.861-1.724-11.066-1.481-.134.159-.65.969-1.146 1.799l-.902 1.51 1.96 2.008c1.079 1.104 3.383 3.56 5.121 5.458a444.114 444.114 0 0 0 6.128 6.533c7.764 8.064 8.511 8.974 6.511 7.94-1.463-.757-5.207-2.173-10.896-4.121a244.616 244.616 0 0 1-7.355-2.662c-1.797-.694-3.544-1.33-3.881-1.412-.337-.083-1.297-.441-2.132-.796-1.971-.838-1.811-.894-2.763.972-.972 1.906-.973 1.91-.315 1.966.437.038 5.788 1.906 7.661 2.675 1.976.811 6.482 2.387 7.342 2.567.555.116 1.198.365 1.43.553.232.187 1.616.72 3.077 1.182 1.461.463 4.72 1.58 7.242 2.483l4.586 1.642 1.068-1.822c1.35-2.305.992-2.877-6.767-10.811-1.011-1.034-3.494-3.693-5.516-5.909-2.022-2.216-4.688-5.026-5.924-6.244-1.661-1.638-1.979-2.113-1.219-1.824.565.215 1.943.511 3.063.659 1.9.251 4.04.598 12.864 2.084 1.911.321 5.312.866 7.559 1.21 2.247.345 4.646.718 5.331.829 1.146.186 1.318.051 2.165-1.693 1.038-2.136 1.035-2.142-1.98-4.231-.786-.545-1.522-1.098-1.634-1.229-.113-.131-1.492-1.146-3.065-2.257-1.573-1.111-3.135-2.246-3.473-2.522-.337-.276-2.543-1.897-4.903-3.602-2.359-1.705-4.565-3.323-4.902-3.595-1.314-1.059-6.083-4.373-6.295-4.373-.123 0-.574.683-1.002 1.518M9.855 263.382c-1 .701-1.171 2.659-.295 3.386 2.053 1.704 4.998-.502 3.602-2.697-.617-.971-2.38-1.338-3.307-.689m308.74 2.835c-1.773.962-13.424 5.578-20.014 7.929l-6.016 2.146-14.209 14.556c-27.551 28.223-36.662 37.401-38.928 39.214-1.821 1.457-.555 1.413 4.162-.147 30.281-10.013 57.634-31.943 73.994-59.327 3.327-5.569 3.343-5.636 1.011-4.371m-304.703 5.364c-1.749.625-2.174 3.021-.706 3.983 2.131 1.397 4.682-1.215 3.122-3.197-.839-1.066-1.254-1.202-2.416-.786m40.743 3.038c-1.547 5.108-3.188 10.667-3.423 11.591-1.134 4.471-2.329 7.448-2.942 7.329-1.181-.229-6.506-1.384-9.353-2.028a350.133 350.133 0 0 0-3.575-.796c-4.767-1.002-7.062-1.508-7.661-1.688-.566-.171-.455.202.53 1.787l1.245 2.004 4.578.915c2.517.503 4.945 1.003 5.394 1.111.449.107 1.185.256 1.634.331 1.288.214 6.829 1.426 8.064 1.763 1.03.281.586.624-5.586 4.319l-6.704 4.013.825 1.4c.455.77.988 1.399 1.186 1.399.287 0 28.02-16.503 28.497-16.958.188-.179-1.077-2.558-1.499-2.818-.193-.119-3.274 1.545-6.846 3.699-8.023 4.836-7.572 4.654-7.013 2.832.247-.805.613-1.463.814-1.463.2 0 .257-.173.127-.384-.223-.36.323-2.214 3.716-12.618 1.663-5.098 1.658-4.932.201-7.273l-1.174-1.887-1.035 3.42m210.738 10.654c-24.838 8.669-42.81 17.802-62.204 31.609-8.287 5.9-22.577 17.651-22.577 18.567 0 1.322 25.598 1.84 34.775.704l5.153-.638 2.202-2.342 2.627-2.793c.235-.248 5.184-5.692 10.999-12.096 18.646-20.538 23.152-25.472 26.119-28.601 3.132-3.304 4.56-4.922 4.297-4.87-.091.017-.717.224-1.391.46m41.985 29.147l-1.325 1.058 5.41 6.647c8.871 10.896 11.388 13.884 12.514 14.849 1.39 1.193 1.248 1.173-3.275-.464-2.105-.762-9.404-3.244-16.22-5.517l-12.391-4.131-1.798 1.473-1.799 1.474 2.531 3.124c1.392 1.718 6.18 7.587 10.641 13.042l8.11 9.917 1.177-.929c.647-.51 1.187-1.092 1.2-1.292.038-.62-15.849-19.991-17.23-21.008-1.789-1.317-.262-1.056 5.914 1.01 3.652 1.221 7.007 2.378 7.457 2.571.98.421 4.594 1.603 5.673 1.855.423.099 3.401 1.097 6.616 2.218l5.846 2.038 1.637-1.31c2.113-1.692 2.184-1.404-1.476-5.963-5.742-7.152-14.448-17.789-16.181-19.77l-1.707-1.951-1.324 1.059M81.205 327.437c-6.46 6.504-11.746 11.943-11.746 12.087 0 .268 2.266 2.049 2.607 2.049.232 0 .816-.593 9.099-9.245 3.63-3.792 7.592-7.93 8.806-9.196l2.206-2.302-3.215 9.657c-1.769 5.311-3.278 9.932-3.354 10.269-.076.337-.531 1.655-1.011 2.93-1.954 5.189-1.97 6.065-.137 7.329l1.546 1.066 3.064-2.189c1.686-1.204 3.341-2.319 3.678-2.477.337-.158 2.136-1.353 3.999-2.656 1.862-1.303 3.479-2.369 3.592-2.369.114 0 .428-.181.7-.403 1.304-1.066 4.406-3.274 4.6-3.274.12 0 .44-.181.711-.403 1.373-1.122 4.412-3.274 4.623-3.274.133 0-.171.689-.674 1.532-.504.843-1.464 2.543-2.134 3.779-.669 1.236-1.498 2.697-1.841 3.245-.343.549-1.304 2.296-2.136 3.882-1.35 2.574-4.25 7.841-6.382 11.59l-.768 1.351 1.226.996c.674.547 1.4.938 1.614.868.439-.144.988-1.078 5.324-9.061.732-1.349 2.298-4.199 3.479-6.333 4.015-7.255 4.632-8.375 5.627-10.215a80.476 80.476 0 0 1 1.247-2.247c.661-1.065.338-1.804-1.307-2.985l-1.766-1.268-5.475 3.729c-4.591 3.128-12.268 8.289-15.227 10.236-.42.276-1.431.972-2.247 1.546-.816.574-1.674 1.158-1.907 1.298-.351.211 6.867-22.615 7.975-25.222 1.371-3.222.849-4.612-2.24-5.967-.225-.098-5.695 5.143-12.156 11.647m192.339 10.817c-3.595 1.94-6.865 3.721-7.266 3.958-.589.348 13.358 28.151 14.999 29.9.093.098 14.577-7.564 14.891-7.878.26-.26-1.149-2.232-1.596-2.232-.222 0-2.912 1.353-5.977 3.006l-5.573 3.005-1.204-2.29a760.131 760.131 0 0 0-3.041-5.692c-1.009-1.87-1.772-3.452-1.695-3.515.077-.062 2.53-1.365 5.451-2.895 2.922-1.529 5.382-2.838 5.469-2.907.288-.231-.863-2.604-1.263-2.604-.216 0-2.841 1.292-5.833 2.872l-5.441 2.871-2.697-5.097c-1.483-2.804-2.696-5.187-2.696-5.296 0-.109 2.528-1.526 5.617-3.148 3.09-1.623 5.689-3.008 5.776-3.079.236-.193-.83-2.613-1.126-2.556-.142.027-3.199 1.636-6.795 3.577m-137.881-2.019c-1.45 2.71 1.165 4.976 3.29 2.851.9-.9.808-2.703-.17-3.325-.937-.596-2.69-.33-3.12.474m8.566 3.295c-2.046 2.045.269 4.655 2.887 3.254.515-.275.79-.855.79-1.663 0-2.29-2.079-3.189-3.677-1.591m-20.495 11.134c-6.311 15.698-6.702 18.479-3.028 21.528.353.293.642.817.642 1.164s.112.519.249.382c.138-.137.961.2 1.831.749 4.999 3.156 10.469 3.774 14.532 1.642 3.4-1.784 3.642-2.209 9.577-16.772l4.001-9.817-1.509-.691c-1.418-.649-1.526-.649-1.782 0-10.294 26.135-11.705 27.921-19.652 24.874-7.997-3.065-8.209-5.341-1.942-20.784 2.476-6.101 4.501-11.255 4.501-11.454 0-.289-2.416-1.546-2.971-1.546-.075 0-2.077 4.826-4.449 10.725m129.06-2.482c-.778.283-1.076.629-.942 1.091 1.024 3.507 3.53 13.254 3.432 13.348-.069.067-2.24.679-4.824 1.362-2.585.682-6.493 1.721-8.686 2.308-4.931 1.32-4.319 1.902-6.442-6.119l-1.794-6.778-1.243.261c-.684.144-1.413.422-1.622.618-.229.215 1.307 6.603 3.895 16.198l4.274 15.842 1.411-.117c2.071-.172 2.07-.148.159-7.192-.969-3.571-1.869-6.984-2.001-7.585l-.24-1.093 8.856-2.349c4.871-1.292 8.986-2.199 9.144-2.017.159.183 1.065 3.274 2.014 6.869.95 3.596 1.825 6.879 1.945 7.296.224.778 2.297.716 3.106-.092.27-.27-4.31-18.231-7.697-30.186-.631-2.226-.847-2.358-2.745-1.665m-90.179 4.696c0 .404-4.89 31.299-5.106 32.258-.164.728 2.805 1.849 3.317 1.252.086-.1 2.175-13.559 2.389-15.397.494-4.226 1.537-11.394 1.813-12.462l.317-1.226.515 1.839c.284 1.011.877 2.574 1.32 3.473.443.899 1.326 2.921 1.964 4.494.638 1.573 1.451 3.412 1.807 4.086.356.674.649 1.359.65 1.522.003.282 1.862 4.494 3.099 7.019.319.652.581 1.346.581 1.54 0 .195.735 1.91 1.634 3.811.899 1.901 1.635 3.63 1.635 3.844 0 .366 4.391 1.123 4.656.802.228-.276 5.262-32.657 5.102-32.815-.931-.917-3.159-.62-3.383.45-.404 1.933-2.581 16.315-3.377 22.313-.41 3.094-.816 5.392-.902 5.107-.136-.451-3.66-8.895-5.162-12.367-.292-.674-1.124-2.605-1.849-4.29a314.743 314.743 0 0 0-2.54-5.72c-.671-1.461-1.457-3.318-1.746-4.126-1.06-2.965-2.244-4.849-3.164-5.034-2.392-.481-3.57-.604-3.57-.373m47.895 3.207c-16.04 2.864-16.976 30.733-1.132 33.662 5.996 1.109 14.776-.878 14.268-3.228-.459-2.126-.435-2.109-2.084-1.411-11.784 4.993-19.499.133-19.493-12.279.006-11.163 5.951-15.909 17.199-13.731l1.7.329.149-1.56c.133-1.394.038-1.583-.883-1.77-2.452-.497-6.973-.503-9.724-.012" fill-rule="evenodd"/></svg>